<svg width="25" height="25" viewBox="0 0 25 25" fill="none" xmlns="http://www.w3.org/2000/svg">
<path d="M12.5001 6.25002C16.448 6.25002 19.9688 8.46877 21.6876 11.9792C19.9688 15.4896 16.448 17.7084 12.5001 17.7084C8.55216 17.7084 5.03133 15.4896 3.31258 11.9792C5.03133 8.46877 8.55216 6.25002 12.5001 6.25002ZM12.5001 4.16669C7.29175 4.16669 2.84383 7.40627 1.04175 11.9792C2.84383 16.5521 7.29175 19.7917 12.5001 19.7917C17.7084 19.7917 22.1563 16.5521 23.9584 11.9792C22.1563 7.40627 17.7084 4.16669 12.5001 4.16669ZM12.5001 9.37502C13.9376 9.37502 15.1042 10.5417 15.1042 11.9792C15.1042 13.4167 13.9376 14.5834 12.5001 14.5834C11.0626 14.5834 9.89591 13.4167 9.89591 11.9792C9.89591 10.5417 11.0626 9.37502 12.5001 9.37502ZM12.5001 7.29169C9.91675 7.29169 7.81258 9.39585 7.81258 11.9792C7.81258 14.5625 9.91675 16.6667 12.5001 16.6667C15.0834 16.6667 17.1876 14.5625 17.1876 11.9792C17.1876 9.39585 15.0834 7.29169 12.5001 7.29169Z" fill="white"/>
</svg>
